<?xml version="1.0" encoding="utf-8"?>
<!-- Generator: Adobe Illustrator 21.0.0, SVG Export Plug-In . SVG Version: 6.00 Build 0)  -->
<svg version="1.1" id="图层_1" xmlns="http://www.w3.org/2000/svg" xmlns:xlink="http://www.w3.org/1999/xlink" x="0px" y="0px"
	 viewBox="0 0 468 96" style="enable-background:new 0 0 468 96;" xml:space="preserve">
<style type="text/css">
	.st0{fill:#E7373C;}
	.st1{fill:#262626;}
</style>
<title>LOGO全</title>
<g>
	<polyline class="st0" points="40.7,37.9 41.8,31.3 14.3,31.3 8,67.2 22.6,67.2 23.8,60.6 15.8,60.6 19.8,37.9 40.7,37.9 	"/>
	<polygon class="st1" points="65.3,46.7 29.9,46.7 23.7,82 59,82 62.7,61.1 41.8,61.1 40.6,67.6 55.1,67.6 53.7,75.6 31.3,75.6 
		35.3,53.2 57.6,53.2 56.9,57.2 63.4,57.2 	"/>
	<polygon class="st1" points="90.7,82 78.6,42.8 89.3,42.8 82.1,19 78.7,24.1 83,37.9 77.1,37.9 69,11.4 62.4,11.4 41.9,42.5 
		49,42.5 64.3,19.4 70,37.9 56.9,37.9 54,42.8 71.5,42.8 83.5,82 	"/>
	<g>
		<g>
			<path class="st1" d="M141,32.4l-3.5,19.8h-5l0.3-2h-9l-2.2,12.4h-5l2.2-12.4h-8.9l-0.4,2.2h-4.7l3.5-20h13.7l1.2-6.8h5l-1.2,6.8
				H141z M119.8,45.5l1.5-8.5h-8.9l-1.5,8.5H119.8z M133.8,45.5l1.5-8.5h-8.9l-1.5,8.5H133.8z"/>
			<path class="st1" d="M157.6,35.7c-1.2,1.8-2.5,3.7-4,5.5h0l-3.8,21.3h-4.4l2.7-15.1c-1.2,1.2-2.3,2.3-3.4,3.2
				c-0.3-1-1.2-3.4-1.8-4.4c3.7-3,7.9-7.6,10.8-12L157.6,35.7z M158.4,27.3c-3.2,3.8-7.9,8.2-11.7,11c-0.3-1.1-1-2.9-1.5-3.9
				c3.1-2.3,7.1-6.1,9.3-8.9L158.4,27.3z M150.7,59c1.7-1.8,3.3-4.8,4.4-7.3l3.3,1.4c-1.1,2.6-2.7,5.9-4.5,8L150.7,59z M179.7,50.1
				h-12c0.6,1.4,1.2,3.1,1.5,4.2l-3.9,1.3c-0.3-1.2-1-3.3-1.5-4.8l2.1-0.7h-11.8l0.7-3.8h25.6L179.7,50.1z M166.9,34.1
				c0.2-0.6,0.4-1.3,0.6-2h-9.7l0.6-3.7h10c0.3-1.1,0.5-2,0.7-2.9l5,0.2l-0.9,2.8h10.1l-0.7,3.7h-10.7c-0.2,0.7-0.5,1.4-0.7,2h9.8
				l-1.9,10.5h-22.3l1.9-10.5H166.9z M167.6,58.5c1.1,0,1.4-0.4,2-3.3c0.7,0.6,2.3,1.2,3.4,1.4c-1.2,4.3-2.5,5.4-5.5,5.4h-4.9
				c-4.1,0-4.9-1.1-4.3-4.6l0.9-4.8h4.1l-0.8,4.8c-0.2,1,0,1.1,1.3,1.1H167.6z M164.7,37.4H162l-0.7,3.8h2.7L164.7,37.4z
				 M170.7,37.4h-2.8l-0.7,3.8h2.8L170.7,37.4z M173.2,41.2h2.9l0.7-3.8h-2.9L173.2,41.2z M175.6,51.5c1.3,2.3,2.6,5.4,2.9,7.5
				l-4,1.7c-0.1-2.1-1.3-5.3-2.6-7.6L175.6,51.5z"/>
			<path class="st1" d="M207.5,25.6c-0.3,1.7-0.8,3.8-1.4,6.2c-0.4,5.3-0.6,20.3,12.1,26.4c-1.7,1.1-3.3,2.7-4.2,4.1
				C206,58,203,50.3,201.9,43.5c-3.4,7-8.8,14.1-17.9,19c-0.6-1.3-1.9-2.8-3.2-3.8c17.6-8.6,20-26.3,21.3-33H207.5z"/>
			<path class="st1" d="M257.6,55l-0.8,4.8h-36l0.8-4.8h15.1l3.6-20.5h-13l0.9-4.9h31.7l-0.9,4.9h-13.3L242.1,55H257.6z"/>
			<path class="st1" d="M277.8,45.2c-0.9-1-2.9-2.6-4.4-3.8c-1.8,2-4.4,4-8.3,5.7c-0.5-1-1.5-2.4-2.4-3.2c4.3-1.6,6.7-3.5,8-5.5
				h-6.6l0.6-3.7h2.7c-0.8-0.6-2-1.3-2.7-1.7c2.4-1.9,4.4-4.8,5.7-7.7l4,0.9c-0.4,0.8-0.7,1.5-1.2,2.3h9.8l-0.6,3.6h-5.1l-0.3,1.8
				c0,0.3-0.1,0.5-0.2,0.8h6.1l-0.6,3.7h-6.5c1.5,0.9,5.1,3.1,6,3.8L277.8,45.2z M272.2,34.7c0.1-0.3,0.1-0.6,0.2-0.9l0.3-1.7h-2
				c-0.7,1-1.5,1.8-2.3,2.6H272.2z M268,45.8h25.8l-2.9,16.7h-4.8l0.2-1.3h-16.4l-0.2,1.3h-4.6L268,45.8z M272,49.5l-0.4,2.2H288
				l0.4-2.2H272z M287,57.4l0.4-2.3H271l-0.4,2.3H287z M300.3,28.4l-2.6,15h-15.1l2.6-15H300.3z M294.9,32.6h-6l-1.2,6.7h6
				L294.9,32.6z"/>
			<path class="st1" d="M319.8,27.9c1.3,2.7,2.8,6.2,2.9,8.7l-4.6,1.7c0-0.6-0.1-1.3-0.3-2c-9.7,0.8-11.3,1.1-12.4,1.5
				c-0.1-0.9-0.5-3.1-0.8-4.4c0.7-0.2,1.4-0.7,2.2-1.5c0.7-0.8,3.1-3.6,4.7-6.5l4.8,1.3c-1.5,2.3-3.5,4.6-5.3,6.5l5.8-0.4
				c-0.4-1.2-0.9-2.4-1.3-3.4L319.8,27.9z M317.1,57.7c-0.4,2.1-1,3.2-2.4,3.9c-1.4,0.8-3.3,0.8-5.7,0.8c0-1.2-0.4-3.1-0.8-4.2
				c1.4,0.1,3,0,3.5,0c0.5,0,0.7-0.1,0.7-0.6l0.5-2.7H307l-1.3,7.5h-4.4l4-22.7h14.9L317.1,57.7z M309,43.6l-0.4,2.1h5.9l0.4-2.1
				H309z M313.5,51.5l0.4-2.3H308l-0.4,2.3H313.5z M328.4,43.2c-4.6,0-5.5-1.3-4.7-5.7l2.1-11.9h4.7l-1,5.7c2.9-1.1,5.8-2.3,7.8-3.3
				l2.4,3.4c-3.3,1.5-7.2,2.7-10.8,3.7l-0.4,2.3c-0.2,1.4,0,1.6,1.5,1.6h4.3c1.3,0,1.7-0.6,2.5-4c0.8,0.7,2.6,1.4,3.8,1.7
				c-1.4,5.1-2.9,6.5-6.5,6.5H328.4z M331,58.1c1.4,0,1.7-0.8,2.6-4.7c0.9,0.7,2.6,1.4,3.8,1.7c-1.5,5.5-3,7.1-6.8,7.1h-5.5
				c-4.6,0-5.6-1.4-4.8-5.7l2.2-12.4h4.7l-0.9,5.4c3-1.1,6-2.4,8.1-3.7l2.5,3.4c-3.3,1.6-7.5,3-11.3,4.2l-0.6,3.1
				c-0.2,1.4,0,1.6,1.5,1.6H331z"/>
			<path class="st1" d="M353.1,31.7c-1,2.7-2.2,5.4-3.5,7.9h7.4l-3.2,18.2h-7.6l-0.5,2.9h-3.9l2.2-12.3c-0.6,0.8-1.3,1.5-2,2.2
				c0.1-1.3-0.2-4.3-0.6-5.6c3-3.2,5.5-8,7.4-13.2h-4.2l0.7-4.3h14.4l-0.8,4.3H353.1z M352.2,43.7h-3.6l-1.7,9.9h3.6L352.2,43.7z
				 M378.5,46.1h-4.2l-2.9,16.5h-4.5l2.9-16.5h-4.5c-1.3,5.8-3.6,12.4-8.4,16.8c-0.7-0.8-2.1-2.1-3.1-2.7c4-3.7,6-9.2,7.1-14h-3.7
				l0.8-4.4h3.8l1.7-9.8h-2.7l0.8-4.4h19.4l-0.8,4.4h-3.4l-1.7,9.8h4.2L378.5,46.1z M370.6,41.6l1.7-9.8h-4.4l-1.7,9.8H370.6z"/>
			<path class="st1" d="M410.8,57.4c0.8,0,1.1-0.7,2.1-5.7c0.9,0.8,2.8,1.6,4,2c-1.6,6.4-3.1,8.2-6.4,8.2h-3.5
				c-3.8,0-4.7-1.3-3.9-5.9l1.3-7.2h-5.8c-1.4,5.2-5.3,10.6-16.7,13.7c-0.5-1.2-1.7-2.9-2.6-3.9c9.7-2.5,13.1-6.2,14.4-9.7h-9.3
				l0.8-4.4h9.5l0.6-3.4h4.9l-0.6,3.4h10.5l-2,11.5c-0.2,1.3-0.1,1.5,0.7,1.5H410.8z M388.7,37.3h-4.8l1.4-7.8H400
				c-0.2-1.1-0.4-2.1-0.7-3.1l5.3-1.2c0.5,1.3,1,3,1.2,4.3h14l-1.3,7.4h-5l0.6-3.3h-24.7L388.7,37.3z M384.3,39.7
				c3.7-1.1,8.6-3.2,12.3-5.5l3.3,2.2c-3.9,2.7-9.1,5.3-13.2,6.7L384.3,39.7z M406.5,34.1c3.4,1.6,8,4.3,10.4,6.2l-3.9,2.8
				c-2-1.9-6.5-4.7-10-6.5L406.5,34.1z"/>
			<path class="st1" d="M437.7,28.7c-1.6,3.3-3.6,7.3-5.3,10.4c1.8,3.1,1.9,5.9,1.4,8.2c-0.5,2.6-1.3,4.3-2.7,5.2
				c-0.7,0.5-1.5,0.7-2.4,0.9c-0.7,0.1-1.7,0.1-2.5,0.1c0.2-1.2,0.1-2.9-0.3-4c0.7,0,1.3,0.1,1.7,0c0.4,0,0.8-0.1,1.1-0.3
				c0.5-0.4,0.9-1.2,1.1-2.4c0.3-1.9,0.3-4.4-1.5-7.2c1.2-2.4,2.6-5.6,3.7-8.2h-3.2l-5.5,31.1h-4.1l6.2-35.3h8.8l0.7-0.2L437.7,28.7
				z M451.1,58c0.6,0,0.9-0.7,1.7-4.7c0.7,0.8,2.5,1.4,3.5,1.7c-1.3,5.4-2.7,6.9-5.5,6.9h-2.7c-3.5,0-4-1.3-3.3-5.3l1.4-8.1h-2.6
				c-1.8,6.7-4.4,11.2-12.6,13.9c-0.2-1.2-1.2-2.9-1.9-3.8c6.6-1.9,8.6-5.1,10-10.1h-4.8l0.7-4.2h22.6l-0.7,4.2h-6.2l-1.4,8.1
				c-0.2,1.1-0.1,1.3,0.4,1.3H451.1z M439.2,38h-3.1l1.4-7.8h9.2c-0.2-1.3-0.6-2.6-1-3.8l4.7-1.3c0.6,1.5,1.2,3.6,1.4,5h8.2
				l-1.4,7.8h-3.1l-0.6,3.5h-16.3L439.2,38z M441.1,34.2l-0.6,3.2h13.6l0.6-3.2H441.1z"/>
		</g>
	</g>
	<g>
		<path class="st1" d="M109.1,80.3l-0.3,1.8h-3.1c-0.6,0-1,0-1.3-0.1c-1-0.2-1.7-0.9-2-2c-0.2-0.7-0.2-1.7,0-2.8
			c0.2-1.3,0.7-2.4,1.3-3.2c0.4-0.6,1-1,1.6-1.3c0.6-0.3,1.4-0.4,2.3-0.4h3l-0.3,1.8h-2.8c-0.9,0-1.5,0.3-2,0.8
			c-0.4,0.4-0.7,1.2-0.9,2.3c-0.3,1.5-0.2,2.4,0.2,2.9c0.3,0.3,0.8,0.5,1.6,0.5H109.1z"/>
		<path class="st1" d="M115,72.1l-0.5,2.7h1.8c0.6,0,1,0,1.3,0.1c0.3,0.1,0.5,0.3,0.7,0.5c0.3,0.4,0.4,1.1,0.3,2.1l-0.8,4.5H116
			l0.7-4.1c0.1-0.4,0.1-0.7,0.1-0.8c0-0.2,0-0.3-0.1-0.4c-0.1-0.2-0.5-0.3-1-0.3h-1.5l-1,5.7h-1.8l1.7-9.9H115z"/>
		<path class="st1" d="M122.2,74.1l0.3-1.9h1.8l-0.3,1.9H122.2z M122,74.8h1.8l-1.3,7.2h-1.8L122,74.8z"/>
		<path class="st1" d="M126.9,74.8h3.4c0.5,0,0.9,0,1.2,0.1c0.3,0.1,0.5,0.2,0.7,0.4c0.4,0.5,0.5,1.2,0.3,2.2l-0.8,4.5h-1.8l0.8-4.7
			c0.1-0.3,0-0.6-0.1-0.8c-0.1-0.2-0.3-0.2-0.7-0.2h-1.6l-1,5.7h-1.8L126.9,74.8z"/>
		<path class="st1" d="M140,77.6c0.1-0.5,0.1-0.8-0.1-1c-0.2-0.2-0.5-0.3-1-0.3h-3l0.3-1.5h3c0.5,0,0.9,0,1.1,0
			c0.2,0,0.4,0.1,0.6,0.1c0.9,0.4,1.2,1.4,0.9,3L141,82h-3.8c-0.7,0-1.1,0-1.4-0.1c-0.3,0-0.5-0.1-0.6-0.3c-0.5-0.4-0.6-1-0.5-1.8
			c0.1-0.5,0.3-0.9,0.5-1.3c0.3-0.4,0.6-0.6,1-0.8c0.3-0.1,0.8-0.2,1.5-0.2H140z M139.7,79.2h-2.1h-0.3c-0.2,0-0.4,0-0.5,0.2
			c-0.1,0.1-0.2,0.3-0.3,0.5c0,0.2,0,0.4,0.1,0.5c0.1,0.1,0.4,0.2,0.7,0.2h2.1L139.7,79.2z"/>
		<path class="st1" d="M147.1,77.3l-0.3,1.8h-3.1l0.3-1.8H147.1z"/>
		<path class="st1" d="M152.8,76.2h4.4l-1,5.9h-4c-0.7,0-1.2-0.1-1.6-0.2c-0.4-0.1-0.7-0.3-1-0.6c-0.8-0.8-1-2.2-0.7-4.1
			c0.2-1.3,0.6-2.3,1.2-3.2c0.4-0.6,1-1.1,1.6-1.4c0.6-0.3,1.4-0.4,2.3-0.4h3.9l-0.3,1.8h-3.7c-0.8,0-1.4,0.2-1.8,0.6
			c-0.5,0.5-0.9,1.3-1.1,2.4c-0.1,0.6-0.1,1.1-0.1,1.6c0,0.5,0.1,0.8,0.3,1.1c0.1,0.2,0.3,0.4,0.6,0.5c0.3,0.1,0.6,0.1,1.1,0.1h1.7
			l0.4-2.3h-2.5L152.8,76.2z"/>
		<path class="st1" d="M165.1,77.6l-0.3,1.5h-3.8c-0.1,0.5,0,0.8,0.2,1c0.2,0.2,0.6,0.3,1.1,0.3h2.2l-0.3,1.5h-2.4
			c-0.5,0-0.9-0.1-1.2-0.2c-0.3-0.1-0.6-0.3-0.8-0.5c-0.7-0.7-0.9-1.7-0.7-3c0.1-0.9,0.5-1.6,1-2.3c0.4-0.4,0.8-0.8,1.2-0.9
			c0.4-0.2,1-0.3,1.6-0.3h2.5l-0.3,1.5h-2.4c-0.5,0-0.9,0.1-1.1,0.3c-0.2,0.2-0.4,0.5-0.5,1H165.1z"/>
		<path class="st1" d="M168.4,74.8h2.6c0.5,0,1,0,1.2,0.1c0.3,0.1,0.5,0.2,0.7,0.4c0.2,0.2,0.3,0.4,0.3,0.7c0,0.3,0,0.7-0.1,1.3
			l-0.1,0.7h-1.7l0.1-0.4c0.1-0.5,0.1-0.9-0.1-1.1c-0.1-0.2-0.4-0.3-0.9-0.3h-0.5l-1,5.7h-1.8L168.4,74.8z"/>
		<path class="st1" d="M176,74.8h6.6c0.6,0,1,0,1.3,0.1c0.3,0.1,0.5,0.3,0.7,0.5c0.3,0.5,0.4,1.1,0.2,2L184,82h-1.8l0.8-4.3
			c0.1-0.3,0.1-0.6,0.1-0.7c0-0.1,0-0.3-0.1-0.4c-0.2-0.2-0.4-0.3-0.8-0.3h-0.9l-1,5.7h-1.8l1-5.7h-1.9l-1,5.7h-1.8L176,74.8z"/>
		<path class="st1" d="M192.3,77.6c0.1-0.5,0.1-0.8-0.1-1c-0.2-0.2-0.5-0.3-1-0.3h-3l0.3-1.5h3c0.5,0,0.9,0,1.1,0
			c0.2,0,0.4,0.1,0.6,0.1c0.9,0.4,1.2,1.4,0.9,3l-0.7,4.1h-3.8c-0.7,0-1.1,0-1.4-0.1c-0.3,0-0.5-0.1-0.6-0.3c-0.5-0.4-0.6-1-0.5-1.8
			c0.1-0.5,0.3-0.9,0.5-1.3c0.3-0.4,0.6-0.6,1-0.8c0.3-0.1,0.8-0.2,1.5-0.2H192.3z M192,79.2h-2.1h-0.3c-0.2,0-0.4,0-0.5,0.2
			c-0.1,0.1-0.2,0.3-0.3,0.5c0,0.2,0,0.4,0.1,0.5c0.1,0.1,0.4,0.2,0.7,0.2h2.1L192,79.2z"/>
		<path class="st1" d="M197.6,74.8h3.4c0.5,0,0.9,0,1.2,0.1c0.3,0.1,0.5,0.2,0.7,0.4c0.4,0.5,0.5,1.2,0.3,2.2l-0.8,4.5h-1.8l0.8-4.7
			c0.1-0.3,0-0.6-0.1-0.8c-0.1-0.2-0.3-0.2-0.7-0.2h-1.5l-1,5.7h-1.8L197.6,74.8z"/>
		<path class="st1" d="M209.9,80.5l1-5.7h1.8l-1.3,7.1c-0.2,0.9-0.5,1.6-1,2.1c-0.5,0.4-1.3,0.7-2.2,0.7H205l0.3-1.5h3.2
			c0.4,0,0.6,0,0.8-0.1c0.1-0.1,0.2-0.1,0.2-0.2c0-0.1,0.1-0.3,0.2-0.7H208c-1.8,0-2.5-1-2-3.2l0.7-4h1.8l-0.7,3.8
			c-0.1,0.7-0.1,1.2-0.1,1.5c0.1,0.2,0.3,0.4,0.7,0.4H209.9z"/>
		<path class="st1" d="M221.5,82l5.4-9.9h2.2l1.9,9.9h-2.2l-0.5-2.3H225l-1.3,2.3H221.5z M227.6,74.5l-1.9,3.5h2.5L227.6,74.5z"/>
		<path class="st1" d="M234.6,74.8h2.7c0.5,0,0.9,0,1.2,0.1c0.3,0.1,0.5,0.2,0.7,0.4c0.2,0.2,0.3,0.4,0.3,0.7c0,0.3,0,0.7-0.1,1.3
			l-0.1,0.7h-1.7l0.1-0.4c0.1-0.5,0.1-0.9,0-1.1c-0.1-0.2-0.4-0.3-0.9-0.3h-0.5l-1,5.7h-1.8L234.6,74.8z"/>
		<path class="st1" d="M242.7,74.8l0.5-2.7h1.8l-0.5,2.7h1.6l-0.3,1.5h-1.7l-0.5,2.6c-0.1,0.6-0.1,1-0.1,1.2
			c0.1,0.2,0.4,0.4,0.7,0.4h0.7l-0.3,1.5h-1.3c-0.8,0-1.3-0.2-1.5-0.6c-0.3-0.4-0.3-1.1-0.1-2.1l0.5-3h-1.1l0.3-1.5H242.7z"/>
		<path class="st1" d="M248.8,74.1l0.3-1.9h1.8l-0.3,1.9H248.8z M248.7,74.8h1.8l-1.3,7.2h-1.8L248.7,74.8z"/>
		<path class="st1" d="M253.8,76.4h-1.2l0.3-1.5h1.2l0.1-0.4c0.1-0.8,0.4-1.4,0.7-1.7c0.4-0.3,0.9-0.5,1.6-0.5h1.6l-0.3,1.5h-0.9
			c-0.5,0-0.8,0.2-0.9,0.8l-0.1,0.3h1.7l-0.3,1.5h-1.7l-1,5.7h-1.8L253.8,76.4z"/>
		<path class="st1" d="M260.1,74.1l0.3-1.9h1.8l-0.3,1.9H260.1z M260,74.8h1.8l-1.3,7.2h-1.8L260,74.8z"/>
		<path class="st1" d="M270.3,74.8l-0.3,1.5h-2.1c-0.7,0-1.2,0.2-1.6,0.5c-0.3,0.3-0.6,0.8-0.7,1.5c-0.1,0.8,0,1.3,0.3,1.7
			c0.2,0.1,0.3,0.2,0.5,0.3c0.2,0,0.5,0.1,0.9,0.1h1.9L269,82h-2.4c-0.7,0-1.2-0.1-1.5-0.2c-0.4-0.1-0.7-0.4-0.9-0.8
			c-0.4-0.7-0.6-1.6-0.4-2.6c0.2-1.3,0.7-2.3,1.5-2.9c0.3-0.3,0.7-0.4,1.1-0.6c0.4-0.1,0.9-0.2,1.5-0.2H270.3z"/>
		<path class="st1" d="M273.1,74.1l0.3-1.9h1.8l-0.3,1.9H273.1z M273,74.8h1.8l-1.3,7.2h-1.8L273,74.8z"/>
		<path class="st1" d="M281.9,77.6c0.1-0.5,0.1-0.8-0.1-1c-0.2-0.2-0.5-0.3-1-0.3h-3l0.3-1.5h3c0.5,0,0.9,0,1.1,0
			c0.2,0,0.4,0.1,0.6,0.1c0.9,0.4,1.2,1.4,0.9,3l-0.7,4.1h-3.8c-0.7,0-1.1,0-1.4-0.1c-0.2,0-0.5-0.1-0.6-0.3c-0.5-0.4-0.6-1-0.5-1.8
			c0.1-0.5,0.3-0.9,0.5-1.3c0.3-0.4,0.6-0.6,1-0.8c0.3-0.1,0.8-0.2,1.5-0.2H281.9z M281.6,79.2h-2.1h-0.3c-0.2,0-0.4,0-0.5,0.2
			c-0.1,0.1-0.2,0.3-0.3,0.5c0,0.2,0,0.4,0.1,0.5c0.1,0.1,0.4,0.2,0.7,0.2h2.1L281.6,79.2z"/>
		<path class="st1" d="M287.7,82h-1.8l1.7-9.9h1.8L287.7,82z"/>
		<path class="st1" d="M298.8,82l1.7-9.9h1.9l-1.7,9.9H298.8z"/>
		<path class="st1" d="M305.1,74.8h3.4c0.5,0,0.9,0,1.2,0.1c0.3,0.1,0.5,0.2,0.7,0.4c0.4,0.5,0.5,1.2,0.3,2.2l-0.8,4.5h-1.8l0.8-4.7
			c0.1-0.3,0-0.6-0.1-0.8c-0.1-0.2-0.3-0.2-0.7-0.2h-1.5l-1,5.7h-1.8L305.1,74.8z"/>
		<path class="st1" d="M314.6,74.8l0.5-2.7h1.8l-0.5,2.7h1.6l-0.3,1.5h-1.6l-0.5,2.6c-0.1,0.6-0.1,1-0.1,1.2
			c0.1,0.2,0.4,0.4,0.7,0.4h0.7l-0.3,1.5h-1.3c-0.8,0-1.3-0.2-1.6-0.6c-0.3-0.4-0.3-1.1-0.1-2.1l0.5-3h-1.1l0.3-1.5H314.6z"/>
		<path class="st1" d="M325.5,77.6l-0.3,1.5h-3.8c0,0.5,0,0.8,0.2,1c0.2,0.2,0.6,0.3,1.1,0.3h2.2l-0.3,1.5h-2.4
			c-0.5,0-0.9-0.1-1.2-0.2c-0.3-0.1-0.6-0.3-0.8-0.5c-0.7-0.7-0.9-1.7-0.7-3c0.1-0.9,0.5-1.6,1-2.3c0.4-0.4,0.8-0.8,1.2-0.9
			c0.4-0.2,1-0.3,1.6-0.3h2.5l-0.3,1.5h-2.4c-0.5,0-0.8,0.1-1.1,0.3c-0.2,0.2-0.4,0.5-0.6,1H325.5z"/>
		<path class="st1" d="M329.3,82h-1.8l1.8-9.9h1.8L329.3,82z"/>
		<path class="st1" d="M334.2,82h-1.8l1.8-9.9h1.8L334.2,82z"/>
		<path class="st1" d="M338.7,74.1l0.3-1.9h1.8l-0.3,1.9H338.7z M338.5,74.8h1.8L339,82h-1.8L338.5,74.8z"/>
		<path class="st1" d="M349.7,74.8l-1.3,7.2c-0.1,0.4-0.2,0.8-0.3,1.1c-0.1,0.3-0.3,0.6-0.5,0.8c-0.3,0.3-0.5,0.5-0.8,0.6
			c-0.3,0.1-0.7,0.1-1.3,0.1h-3.6l0.3-1.5h3.3c0.4,0,0.7-0.1,0.8-0.2c0.1-0.1,0.3-0.4,0.3-0.8H345c-0.5,0-0.9-0.1-1.3-0.2
			c-0.3-0.1-0.6-0.3-0.8-0.6c-0.5-0.7-0.7-1.6-0.5-2.8c0.2-1.4,0.8-2.4,1.7-3c0.3-0.2,0.7-0.4,1-0.5c0.3-0.1,0.7-0.1,1.2-0.1H349.7z
			 M347.6,76.4h-1.5c-1,0-1.7,0.7-1.9,2.1c-0.1,0.7-0.1,1.2,0.1,1.5c0.2,0.4,0.6,0.5,1.1,0.5h1.4L347.6,76.4z"/>
		<path class="st1" d="M357.6,77.6l-0.3,1.5h-3.8c0,0.5,0,0.8,0.2,1c0.2,0.2,0.6,0.3,1.1,0.3h2.2l-0.3,1.5h-2.4
			c-0.5,0-0.9-0.1-1.2-0.2c-0.3-0.1-0.6-0.3-0.8-0.5c-0.7-0.7-0.9-1.7-0.7-3c0.2-0.9,0.5-1.6,1-2.3c0.4-0.4,0.8-0.8,1.2-0.9
			c0.4-0.2,1-0.3,1.6-0.3h2.5l-0.3,1.5h-2.4c-0.5,0-0.8,0.1-1.1,0.3c-0.2,0.2-0.4,0.5-0.5,1H357.6z"/>
		<path class="st1" d="M360.9,74.8h3.4c0.5,0,0.9,0,1.2,0.1c0.3,0.1,0.5,0.2,0.7,0.4c0.4,0.5,0.5,1.2,0.3,2.2l-0.8,4.5h-1.8l0.8-4.7
			c0.1-0.3,0-0.6-0.1-0.8c-0.1-0.2-0.3-0.2-0.7-0.2h-1.5l-1,5.7h-1.8L360.9,74.8z"/>
		<path class="st1" d="M375.3,74.8l-0.3,1.5h-2.1c-0.7,0-1.3,0.2-1.6,0.5c-0.3,0.3-0.6,0.8-0.7,1.5c-0.1,0.8,0,1.3,0.4,1.7
			c0.1,0.1,0.3,0.2,0.5,0.3c0.2,0,0.5,0.1,0.9,0.1h1.9l-0.3,1.5h-2.4c-0.7,0-1.2-0.1-1.5-0.2c-0.3-0.1-0.6-0.4-0.9-0.8
			c-0.4-0.7-0.6-1.6-0.4-2.6c0.2-1.3,0.7-2.3,1.5-2.9c0.3-0.3,0.7-0.4,1.1-0.6c0.4-0.1,0.9-0.2,1.5-0.2H375.3z"/>
		<path class="st1" d="M382.9,77.6l-0.3,1.5h-3.8c0,0.5,0,0.8,0.2,1c0.2,0.2,0.6,0.3,1.1,0.3h2.2l-0.3,1.5h-2.4
			c-0.5,0-0.9-0.1-1.2-0.2c-0.3-0.1-0.6-0.3-0.8-0.5c-0.7-0.7-0.9-1.7-0.7-3c0.2-0.9,0.5-1.6,1-2.3c0.4-0.4,0.8-0.8,1.2-0.9
			c0.4-0.2,1-0.3,1.6-0.3h2.5l-0.3,1.5h-2.4c-0.5,0-0.8,0.1-1.1,0.3c-0.2,0.2-0.4,0.5-0.5,1H382.9z"/>
		<path class="st1" d="M392.9,82l1.7-9.9h1.9l-1.7,9.9H392.9z"/>
		<path class="st1" d="M399.2,74.8h3.5c0.5,0,0.9,0,1.2,0.1c0.3,0.1,0.5,0.2,0.7,0.4c0.4,0.5,0.5,1.2,0.3,2.2L404,82h-1.8l0.8-4.7
			c0.1-0.3,0-0.6-0.1-0.8c-0.1-0.2-0.3-0.2-0.7-0.2h-1.5l-1,5.7h-1.8L399.2,74.8z"/>
		<path class="st1" d="M413.9,74.8l-0.3,1.5h-3.2c-0.4,0-0.6,0-0.7,0.1c-0.2,0.1-0.4,0.3-0.4,0.6c0,0.3,0,0.4,0.2,0.6
			c0.1,0.1,0.4,0.1,0.9,0.1h1.1c0.7,0,1.2,0.2,1.5,0.5c0.4,0.4,0.5,0.9,0.4,1.6c-0.1,0.5-0.3,1-0.7,1.4c-0.3,0.3-0.5,0.6-0.8,0.7
			c-0.3,0.1-0.8,0.2-1.4,0.2h-3.7l0.3-1.5h3.2c0.4,0,0.7,0,0.8,0c0.3,0,0.5-0.2,0.6-0.6c0-0.3,0-0.5-0.2-0.6
			c-0.1-0.1-0.3-0.1-0.8-0.1h-1.1c-0.4,0-0.7,0-1-0.1c-0.2-0.1-0.4-0.2-0.6-0.3c-0.2-0.2-0.4-0.4-0.4-0.8c-0.1-0.3-0.1-0.7,0-1.1
			c0.1-0.7,0.5-1.3,1-1.7c0.3-0.3,0.9-0.4,1.5-0.4H413.9z"/>
		<path class="st1" d="M417.4,74.8l0.5-2.7h1.8l-0.5,2.7h1.7l-0.3,1.5h-1.7l-0.5,2.6c-0.1,0.6-0.1,1,0,1.2c0.1,0.2,0.4,0.4,0.7,0.4
			h0.7l-0.3,1.5h-1.3c-0.8,0-1.3-0.2-1.5-0.6c-0.2-0.4-0.3-1.1-0.1-2.1l0.5-3H416l0.3-1.5H417.4z"/>
		<path class="st1" d="M423.5,74.1l0.3-1.9h1.8l-0.3,1.9H423.5z M423.4,74.8h1.8l-1.3,7.2h-1.8L423.4,74.8z"/>
		<path class="st1" d="M428.8,74.8l0.5-2.7h1.8l-0.5,2.7h1.7l-0.3,1.5h-1.7l-0.5,2.6c-0.1,0.6-0.1,1-0.1,1.2
			c0.1,0.2,0.4,0.4,0.7,0.4h0.7l-0.3,1.5h-1.3c-0.8,0-1.3-0.2-1.5-0.6c-0.3-0.4-0.3-1.1-0.1-2.1l0.5-3h-1.1l0.3-1.5H428.8z"/>
		<path class="st1" d="M438,80.5l1-5.7h1.8l-1.3,7.2H436c-0.5,0-0.9,0-1.2-0.1c-0.3-0.1-0.5-0.2-0.7-0.4c-0.4-0.5-0.5-1.2-0.3-2.2
			l0.8-4.4h1.8l-0.8,4.6c-0.1,0.3,0,0.6,0.1,0.8c0.1,0.2,0.3,0.3,0.6,0.3H438z"/>
		<path class="st1" d="M444.4,74.8l0.5-2.7h1.8l-0.5,2.7h1.7l-0.3,1.5h-1.7l-0.5,2.6c-0.1,0.6-0.1,1-0.1,1.2
			c0.1,0.2,0.4,0.4,0.7,0.4h0.7l-0.3,1.5h-1.3c-0.8,0-1.3-0.2-1.6-0.6c-0.3-0.4-0.3-1.1-0.1-2.1l0.5-3H443l0.3-1.5H444.4z"/>
		<path class="st1" d="M455.2,77.6l-0.3,1.5h-3.8c-0.1,0.5,0,0.8,0.2,1c0.2,0.2,0.6,0.3,1.1,0.3h2.2l-0.3,1.5H452
			c-0.5,0-0.9-0.1-1.2-0.2c-0.3-0.1-0.6-0.3-0.8-0.5c-0.7-0.7-0.9-1.7-0.7-3c0.2-0.9,0.5-1.6,1-2.3c0.4-0.4,0.8-0.8,1.2-0.9
			c0.4-0.2,1-0.3,1.6-0.3h2.5l-0.3,1.5H453c-0.5,0-0.8,0.1-1.1,0.3c-0.2,0.2-0.4,0.5-0.5,1H455.2z"/>
	</g>
</g>
</svg>
