<svg style="cursor: pointer;z-index: 1;" id="图层_1" data-name="图层 1" xmlns="http://www.w3.org/2000/svg" viewBox="0 0 791.69 262.92"><defs><style>.cls-1{fill:#fff;}</style></defs><title>四维看看logo</title><path class="cls-1" d="M177.6,82.56a17.41,17.41,0,1,1-21.11-21.11A50.49,50.49,0,1,0,177.6,82.56Z"/><path class="cls-1" d="M211.41,172.88a144.84,144.84,0,0,0,16.2-66.76,94.67,94.67,0,1,0-189.34,0A146.54,146.54,0,0,0,40,128.72c-14.62,0-24,2.69-25.65,8.73-2.44,9,13.29,21.87,39.53,34.31h0c9.4,4.68,19.06,9,28.81,13.26,5.9,2.58,11.86,5.1,17.84,7.65s12,5.08,18,7.85c-3.28-.31-6.54-.77-9.78-1.3s-6.47-1.14-9.68-1.82q-9.63-2.06-19.08-4.93c-5.92-1.81-11.78-3.83-17.56-6.1a145.88,145.88,0,0,0,70.54,56.09,145.67,145.67,0,0,0,53.44-34.89c28.72,2.44,48.62-.72,51.05-9.7C239.4,190.59,229.31,181.85,211.41,172.88ZM31.22,140.47c.47-1.71,4.26-2.43,10.6-2.27q1.45,6.44,3.45,12.64C35.83,146.4,30.61,142.74,31.22,140.47Zm101.72,34.87a69.23,69.23,0,1,1,69.22-69.22A69.22,69.22,0,0,1,132.94,175.34Zm84.27,15.5c-.63,2.32-7.28,2.82-18.12,1.79q3.82-5.15,7.18-10.64C213.73,185.75,217.75,188.85,217.21,190.84Z"/><path class="cls-1" d="M404.63,103.25Q395.87,106,392.4,106a6.43,6.43,0,0,1-5.73-2.7,12.35,12.35,0,0,1-2-7.08,10.56,10.56,0,0,1,.69-3.76,47.24,47.24,0,0,1,3.15-4.88q5.11-7.45,11.22-25.88,1.83-5.58,4-7.08A7.25,7.25,0,0,1,408,53.44a13.78,13.78,0,0,1,10.08,3.76,5,5,0,0,1,1.57,3.63q0,4.83-8.63,17Q405.64,85.4,400.85,91c3.31-.16,6.61-.29,9.89-.37L412,88a48.34,48.34,0,0,1,2.9-5.71A6.31,6.31,0,0,1,420.26,80,11.61,11.61,0,0,1,429,83.58a6.46,6.46,0,0,1,1.95,4.51q0,3.89-6.23,13.34-6,9.15-20.17,24.31,1.89-.24,7.44-.75,3.78-.37,10.14-1.25a12.84,12.84,0,0,1,2-.19,5.62,5.62,0,0,1,2.53.35,1.43,1.43,0,0,1,.23,1c0,2.46-3.86,6.67-11.33,10.81A61.9,61.9,0,0,1,404,140.59a30.13,30.13,0,0,1-8.26,1.63,8,8,0,0,1-7.18-4.32,12.53,12.53,0,0,1-1.77-6.33q0-3.06,3.6-6.89Q397.5,117,404.63,103.25Z"/><path class="cls-1" d="M426.56,147.49a4.22,4.22,0,0,1,2.57.47c.34.33.2,1,.2,1.53q0,3-6.62,7.83a56.29,56.29,0,0,1-17.33,8.59A43.22,43.22,0,0,1,393.66,168q-8.07,0-8.06-8.84c0-3.46.9-5.87,2.71-7.2,1.26-.92,4-1.47,8.12-1.63a206.22,206.22,0,0,0,23.64-2Q425.8,147.49,426.56,147.49Z"/><path class="cls-1" d="M478.32,53.13a8.49,8.49,0,0,0-8.49,8.49,13,13,0,0,0,8.49,12.23,13.05,13.05,0,0,0,8.5-12.23A8.49,8.49,0,0,0,478.32,53.13Z"/><path class="cls-1" d="M372.24,67.66a11.1,11.1,0,0,0-6.49-6.08,22.2,22.2,0,0,0-7.31-.87H275.76a22.16,22.16,0,0,0-7.31.87A11.07,11.07,0,0,0,262,67.66a18.09,18.09,0,0,0-.94,6.83v81.14a26.32,26.32,0,0,0,.25,4.7,10.48,10.48,0,0,0,3.27,5.76,11.12,11.12,0,0,0,4.35,2.67,26.55,26.55,0,0,0,6.87.65h82.68a22.2,22.2,0,0,0,7.31-.87,11.1,11.1,0,0,0,6.49-6.08,18.09,18.09,0,0,0,.94-6.83V74.49A18.09,18.09,0,0,0,372.24,67.66Zm-19.73,86.59q0,3.19-3.15,3.2H284.84q-3.16,0-3.16-3.2V75.87q0-3.2,3.16-3.2h8.06V93.54q0,24.12-6.3,35.71c-2.14,3.93-2.86,9.51-2.14,10.22S294,138.3,299,133.58q9.76-9.15,12.17-20.68,1.5-7.08,1.51-21.18v-19h8.95v57q0,4.89,2.2,7.14c1.43,1.5,3.72,2.26,6.87,2.26h12.9a6,6,0,1,0,0-12h0c-1.52,0-2.21-.69-2.21-2.07V72.67h7.94q3.15,0,3.15,3.2Z"/><path class="cls-1" d="M508.46,164.68a6,6,0,0,0-5.53-6l-.06,0H487.81V140.4H500a5.54,5.54,0,0,0,0-11.08H487.81v-16h12.8a5.55,5.55,0,0,0,0-11.1h-12.8V86.84H501.6a6,6,0,1,0,0-12H458.19q4.15-9.47,4.16-13.16a7.19,7.19,0,0,0-4.48-6.83,16,16,0,0,0-7.43-1.75,12.7,12.7,0,0,0-5.86,1.25c-2,1-3.45,3.45-4.29,7.2q-5.48,24.83-12.41,39.29-2.89,6-2.9,7.58c0,1,.11,2.34.65,2.72a6.39,6.39,0,0,0,2.82.41c1.63,0,3.82-1.29,6.55-3.88v50.44a16.74,16.74,0,0,0,.82,6.2,10.14,10.14,0,0,0,5.86,5.58,20.23,20.23,0,0,0,6.49.75h54.7l.06,0A6,6,0,0,0,508.46,164.68Zm-39.56-6H456.05q-1.26,0-1.26-1.32v-17H468.9Zm0-29.38H454.79v-16H468.9Zm0-27.07H454.79V86.84H468.9Z"/><path class="cls-1" d="M630.1,95.29H575.9q1.32-2.94,2.52-6.45h44a5.55,5.55,0,0,0,.1-11.09H581.7q.57-2.44,1.32-5.76c.88,0,1.74,0,2.59-.07q28.54-.24,36.23-1.31,7-1,7-7.21,0-5-3.4-7.58a6.56,6.56,0,0,0-4.1-1.13q-1.64,0-8.63,1Q583.53,59.89,528,62q-6.3.25-6.3,4.77a3.91,3.91,0,0,0,2.9,4q3,1.07,29.8,1.06h1.33l3,.06c-.71,3-1.18,5-1.39,5.83h-27a5.55,5.55,0,0,0,0,11.09h23.58q-1.57,4-2.71,6.45H521a5.77,5.77,0,0,0,0,11.53h23.89q-8.45,12.6-25.52,26.38c-2.35,1.88-3.31,3.3-3.53,5a3.39,3.39,0,0,0,.26,2.34c.42.59,2.16,1.23,3.9,1.23q5.55,0,18.53-7.52V161q0,5.39,2.52,7.89t8,2.51h67c3.66,0,6.32-.84,8-2.51s2.52-4.3,2.52-7.89v-37.6q0-5.39-2.52-7.89c-1.68-1.67-4.34-2.51-8-2.51H565a74,74,0,0,0,4.54-6.14H630.1a5.77,5.77,0,1,0,0-11.53Zm-24.65,62.85a1.86,1.86,0,0,1-2.08,2.13H561.66a1.89,1.89,0,0,1-2.14-2.13v-4.2h45.93Zm0-14H559.52V139h45.93Zm-2.08-20a1.86,1.86,0,0,1,2.08,2.13v3H559.52v-3a1.89,1.89,0,0,1,2.14-2.13Z"/><path class="cls-1" d="M759.24,95.29H705q1.32-2.94,2.52-6.45h44a5.55,5.55,0,0,0,.1-11.09H710.83q.57-2.44,1.32-5.76c.88,0,1.75,0,2.59-.07q28.54-.24,36.23-1.31,7-1,7-7.21,0-5-3.4-7.58a6.55,6.55,0,0,0-4.09-1.13c-1.1,0-4,.34-8.64,1Q712.66,59.89,657.14,62q-6.3.25-6.3,4.77a3.92,3.92,0,0,0,2.9,4q3,1.07,29.8,1.06h1.33l3,.06c-.71,3-1.18,5-1.38,5.83h-27a5.55,5.55,0,0,0,0,11.09H683q-1.57,4-2.71,6.45H650.08a5.77,5.77,0,0,0,0,11.53H674q-8.44,12.6-25.53,26.38c-2.35,1.88-3.31,3.3-3.52,5a3.34,3.34,0,0,0,.25,2.34c.42.59,2.16,1.23,3.9,1.23q5.55,0,18.53-7.52V161q0,5.39,2.52,7.89t8,2.51h67c3.66,0,6.32-.84,8-2.51s2.52-4.3,2.52-7.89v-37.6c0-3.59-.85-6.22-2.52-7.89s-4.35-2.51-8-2.51h-51a74,74,0,0,0,4.54-6.14h60.57a5.77,5.77,0,0,0,0-11.53Zm-24.65,62.85a1.86,1.86,0,0,1-2.08,2.13H690.79a1.89,1.89,0,0,1-2.14-2.13v-4.2h45.94Zm0-14H688.65V139h45.94Zm-2.08-20a1.86,1.86,0,0,1,2.08,2.13v3H688.65v-3a1.89,1.89,0,0,1,2.14-2.13Z"/><path class="cls-1" d="M404.63,103.56q-8.76,2.76-12.23,2.76a6.45,6.45,0,0,1-5.73-2.69,12.39,12.39,0,0,1-2-7.08,10.48,10.48,0,0,1,.69-3.76,45.63,45.63,0,0,1,3.15-4.89Q393.6,80.45,399.71,62q1.83-5.57,4-7.08A7.25,7.25,0,0,1,408,53.75a13.82,13.82,0,0,1,10.08,3.76,5,5,0,0,1,1.57,3.64q0,4.82-8.63,17-5.36,7.58-10.14,13.22,5-.25,9.89-.38L412,88.34a47,47,0,0,1,2.9-5.7,6.29,6.29,0,0,1,5.36-2.32A11.61,11.61,0,0,1,429,83.89a6.46,6.46,0,0,1,1.95,4.51q0,3.88-6.23,13.35-6,9.15-20.17,24.31,1.89-.25,7.44-.75c2.52-.26,5.9-.67,10.14-1.26a14.17,14.17,0,0,1,2-.19,5.43,5.43,0,0,1,2.53.36,1.42,1.42,0,0,1,.23,1c0,2.46-3.86,6.67-11.33,10.81A61.28,61.28,0,0,1,404,140.91a30.52,30.52,0,0,1-8.26,1.63,8,8,0,0,1-7.18-4.33,12.48,12.48,0,0,1-1.77-6.33q0-3.06,3.6-6.89Q397.5,117.36,404.63,103.56Z"/><path class="cls-1" d="M426.56,147.8a4.3,4.3,0,0,1,2.57.47c.34.33.2,1,.2,1.53q0,3-6.62,7.84a56.49,56.49,0,0,1-17.33,8.58,43.22,43.22,0,0,1-11.72,2.13q-8.07,0-8.06-8.83,0-5.21,2.71-7.21,1.89-1.38,8.12-1.63a204.22,204.22,0,0,0,23.64-2Q425.8,147.8,426.56,147.8Z"/><path class="cls-1" d="M478.32,53.44a8.49,8.49,0,0,0-8.49,8.49,13.06,13.06,0,0,0,8.49,12.24,13.07,13.07,0,0,0,8.5-12.24A8.49,8.49,0,0,0,478.32,53.44Z"/><path class="cls-1" d="M372.24,68a11.07,11.07,0,0,0-6.49-6.08,21.87,21.87,0,0,0-7.31-.88H275.76a21.83,21.83,0,0,0-7.31.88A11,11,0,0,0,262,68a18.05,18.05,0,0,0-.94,6.83v81.13a26.24,26.24,0,0,0,.25,4.7,10.55,10.55,0,0,0,3.27,5.77,11.21,11.21,0,0,0,4.35,2.66,26,26,0,0,0,6.87.66h82.68a22.14,22.14,0,0,0,7.31-.88,11.07,11.07,0,0,0,6.49-6.08,18.05,18.05,0,0,0,.94-6.83V74.81A18.05,18.05,0,0,0,372.24,68Zm-19.73,86.59q0,3.19-3.15,3.19H284.84q-3.16,0-3.16-3.19V76.18q0-3.2,3.16-3.19h8.06V93.85q0,24.12-6.3,35.72c-2.14,3.92-2.86,9.5-2.14,10.21s9.51-1.17,14.55-5.89q9.76-9.15,12.17-20.68,1.5-7.08,1.51-21.17V73h8.95v57q0,4.89,2.2,7.14t6.87,2.26h12.9a6,6,0,1,0,0-12h0c-1.52,0-2.21-.69-2.21-2.06V73h7.94q3.15,0,3.15,3.19Z"/><path class="cls-1" d="M508.46,165a6,6,0,0,0-5.53-6l-.06,0H487.81V140.72H500a5.55,5.55,0,0,0,0-11.09H487.81v-16h12.8a5.55,5.55,0,0,0,0-11.09h-12.8V87.15H501.6a6,6,0,1,0,0-12H458.19q4.15-9.45,4.16-13.16c0-3.09-1.49-5.36-4.48-6.83a16.08,16.08,0,0,0-7.43-1.75,12.83,12.83,0,0,0-5.86,1.25q-3,1.58-4.29,7.21-5.48,24.81-12.41,39.28-2.89,6-2.9,7.58c0,1,.11,2.35.65,2.72a6.38,6.38,0,0,0,2.82.42c1.63,0,3.82-1.3,6.55-3.89v50.44a16.74,16.74,0,0,0,.82,6.2,10.14,10.14,0,0,0,5.86,5.58,20.23,20.23,0,0,0,6.49.75h54.7l.06,0A6,6,0,0,0,508.46,165Zm-39.56-6H456.05c-.84,0-1.26-.43-1.26-1.31v-17H468.9Zm0-29.38H454.79v-16H468.9Zm0-27.07H454.79V87.15H468.9Z"/><path class="cls-1" d="M630.1,95.61H575.9q1.32-3,2.52-6.46h44a5.54,5.54,0,0,0,.1-11.08l0,0H581.7q.57-2.44,1.32-5.76c.88,0,1.74,0,2.59-.06q28.54-.26,36.23-1.32,7-1,7-7.2c0-3.35-1.13-5.87-3.4-7.59a6.56,6.56,0,0,0-4.1-1.12q-1.64,0-8.63,1-29.18,4.2-84.69,6.33-6.3.24-6.3,4.76a3.91,3.91,0,0,0,2.9,4q3,1.06,29.8,1.06h1.33l3,.07c-.71,3-1.18,5-1.39,5.82h-27a5.54,5.54,0,0,0,0,11.08h23.58q-1.57,4-2.71,6.46H521a5.76,5.76,0,0,0,0,11.52h23.89q-8.45,12.58-25.52,26.37c-2.35,1.88-3.31,3.3-3.53,5a3.42,3.42,0,0,0,.26,2.35c.42.58,2.16,1.22,3.9,1.22q5.55,0,18.53-7.51v26.75q0,5.39,2.52,7.89t8,2.51h67c3.66,0,6.32-.84,8-2.51s2.52-4.3,2.52-7.89V123.68q0-5.4-2.52-7.9c-1.68-1.67-4.34-2.5-8-2.5H565a75.77,75.77,0,0,0,4.54-6.14H630.1a5.76,5.76,0,1,0,0-11.52Zm-24.65,62.84a1.86,1.86,0,0,1-2.08,2.13H561.66a1.89,1.89,0,0,1-2.14-2.13v-4.2h45.93Zm0-14H559.52v-5.08h45.93Zm-2.08-20a1.86,1.86,0,0,1,2.08,2.13v3H559.52v-3a1.89,1.89,0,0,1,2.14-2.13Z"/><path class="cls-1" d="M759.24,95.61H705q1.32-3,2.52-6.46h44a5.54,5.54,0,0,0,.1-11.08l0,0H710.83q.57-2.44,1.32-5.76c.88,0,1.75,0,2.59-.06Q743.29,72,751,70.92q7-1,7-7.2c0-3.35-1.13-5.87-3.4-7.59A6.55,6.55,0,0,0,750.47,55c-1.1,0-4,.33-8.64,1q-29.18,4.2-84.69,6.33-6.3.24-6.3,4.76a3.92,3.92,0,0,0,2.9,4q3,1.06,29.8,1.06h1.33l3,.07c-.71,3-1.18,5-1.38,5.82h-27a5.54,5.54,0,0,0,0,11.08H683q-1.57,4-2.71,6.46H650.08a5.76,5.76,0,0,0,0,11.52H674q-8.44,12.58-25.53,26.37c-2.35,1.88-3.31,3.3-3.52,5a3.37,3.37,0,0,0,.25,2.35c.42.58,2.16,1.22,3.9,1.22q5.55,0,18.53-7.51v26.75q0,5.39,2.52,7.89t8,2.51h67c3.66,0,6.32-.84,8-2.51s2.52-4.3,2.52-7.89V123.68c0-3.6-.85-6.23-2.52-7.9s-4.35-2.5-8-2.5h-51a75.77,75.77,0,0,0,4.54-6.14h60.57a5.76,5.76,0,0,0,0-11.52Zm-24.65,62.84a1.86,1.86,0,0,1-2.08,2.13H690.79a1.89,1.89,0,0,1-2.14-2.13v-4.2h45.94Zm0-14H688.65v-5.08h45.94Zm-2.08-20a1.86,1.86,0,0,1,2.08,2.13v3H688.65v-3a1.89,1.89,0,0,1,2.14-2.13Z"/><path class="cls-1" d="M347,210.49a20.23,20.23,0,0,1,2.86,4,13.52,13.52,0,0,1,1,5.64,9.51,9.51,0,0,1-.43,3.19,3,3,0,0,1-3.17,1.95H344.5a1.52,1.52,0,0,1-1.34-.71v5.9a1.81,1.81,0,0,1-.44,1.26,3.32,3.32,0,0,1-2.59,1.08A3.4,3.4,0,0,1,338,232a1.88,1.88,0,0,1-.62-1.62V201a5.57,5.57,0,0,1,.23-1.91,3,3,0,0,1,1.64-1.73,5.22,5.22,0,0,1,1.82-.23h6.8q3.19,0,3.19,2.86a15.32,15.32,0,0,1-1.26,4.92A35.65,35.65,0,0,1,347,210.49Zm-1.78-9.37h-1.4a.57.57,0,0,0-.64.64v20.12a1.4,1.4,0,0,1,1.2-.63h.6a1.27,1.27,0,0,0,.76-.18c.21-.17.31-.59.31-1.28a18.09,18.09,0,0,0-.54-4.6,23.61,23.61,0,0,0-2-4.47q.68-2.47,1.32-5.31a24.73,24.73,0,0,0,.69-3.85C345.54,201.3,345.43,201.15,345.2,201.12Zm11.59,9.52c-2.46-2.14-3.7-3.73-3.7-4.76a1.77,1.77,0,0,1,.76-1.43,4.15,4.15,0,0,1,2.71-.82,1.76,1.76,0,0,1,1.58.66,14.64,14.64,0,0,1,1.07,3.06q.09.35.54,1.74c.19.62.34,1.14.45,1.55h3.46l.12-.35q.44-1.2,1.53-5a2.48,2.48,0,0,1,.81-1.42,2.13,2.13,0,0,1,1.22-.29,4.22,4.22,0,0,1,2.69.8,1.7,1.7,0,0,1,.73,1.37,3.76,3.76,0,0,1-1,2.09,31.11,31.11,0,0,1-2.73,2.81h5a1.58,1.58,0,0,1,1.22.52,1.94,1.94,0,0,1,.54,1.36,1.81,1.81,0,0,1-.66,1.45,1.63,1.63,0,0,1-1.1.37H351.93a1.39,1.39,0,0,1-1-.47,1.73,1.73,0,0,1-.49-1.28,2.21,2.21,0,0,1,.58-1.53,1.33,1.33,0,0,1,.95-.42Zm3.83-11.13q-1.89-1.22-1.89-2.13a1.5,1.5,0,0,1,.69-1.2,4.52,4.52,0,0,1,2.81-.77,3.31,3.31,0,0,1,2.15.54c.47.42.75,1.61.83,3.56h6.12a1.56,1.56,0,0,1,1.2.53,2,2,0,0,1,.52,1.35,1.81,1.81,0,0,1-.66,1.45,1.69,1.69,0,0,1-1.06.37h-18a1.55,1.55,0,0,1-1.17-.53,1.92,1.92,0,0,1,.12-2.78,1.55,1.55,0,0,1,1.05-.39ZM355.18,217h13.73a3.35,3.35,0,0,1,2.42.78,3.45,3.45,0,0,1,.75,2.46v8.11a3.45,3.45,0,0,1-.75,2.46,3.35,3.35,0,0,1-2.42.77H355.18a3.77,3.77,0,0,1-2.15-.5,3,3,0,0,1-1.08-2.56v-8.45a2.9,2.9,0,0,1,1.26-2.68A3.91,3.91,0,0,1,355.18,217Zm3.12,4.07v6.45q0,.63.66.63h6.17q.66,0,.66-.63v-6.45c0-.43-.22-.64-.66-.64H359C358.52,220.45,358.3,220.66,358.3,221.09Z"/><path class="cls-1" d="M425.89,205.43v25.19a2,2,0,0,1-.84,1.58,3.63,3.63,0,0,1-2.4.79,3.32,3.32,0,0,1-2.49-.93,2,2,0,0,1-.62-1.44v-17.5c-1.38,1.17-2.4,1.76-3,1.76a1.13,1.13,0,0,1-1.05-.64,1.27,1.27,0,0,1-.15-.6,6.72,6.72,0,0,1,1-2.11,55.88,55.88,0,0,0,2.78-5.92q.56-1.28,2.56-7.26a3.83,3.83,0,0,1,1.61-2.38,3.43,3.43,0,0,1,1.52-.33,4.84,4.84,0,0,1,2.52.7,2.37,2.37,0,0,1,1.39,2.09,12.9,12.9,0,0,1-1.27,4A28.24,28.24,0,0,1,425.89,205.43Zm6.63,6.89a3.34,3.34,0,0,1,2.56.91,1.77,1.77,0,0,1,.37,1.16,14.72,14.72,0,0,1-1.36,5,26.21,26.21,0,0,1-3.87,6.66c-1,1.27-1.83,1.9-2.44,1.9a.82.82,0,0,1-.46-.13.84.84,0,0,1-.43-.82,11.32,11.32,0,0,1,.58-1.91,55.34,55.34,0,0,0,2.65-10.42,3.54,3.54,0,0,1,.72-1.83A2.22,2.22,0,0,1,432.52,212.32Zm4.73-12.17h12.38c2.12,0,3.18.79,3.18,2.38s-1,3.62-2.9,5.94q-2.25,2.72-3.68,2.71a.92.92,0,0,1-1.05-1,13.64,13.64,0,0,1,.41-2.38c.15-.7.26-1.21.31-1.53q.23-1.31.27-1.44a1.85,1.85,0,0,0,.06-.44c0-.17-.16-.25-.49-.25H435.56a28.93,28.93,0,0,1-3.44,5.07c-1.56,1.86-2.78,2.78-3.66,2.78a1,1,0,0,1-.85-.42,1,1,0,0,1-.21-.66,12.33,12.33,0,0,1,.79-2.38A56.29,56.29,0,0,0,431,198.12a3.3,3.3,0,0,1,1-2.17,3.57,3.57,0,0,1,2.05-.54,4.52,4.52,0,0,1,2.54.68,2.13,2.13,0,0,1,1.08,1.85A7.82,7.82,0,0,1,437.25,200.15Zm-.84,27.48V209.09a2.09,2.09,0,0,1,.9-1.61,4,4,0,0,1,4.78.24,2.11,2.11,0,0,1,.67,1.51V229a3,3,0,0,1-.77,2.3,3.54,3.54,0,0,1-2.46.72h-6.81a1.36,1.36,0,0,1-1.14-.64,2,2,0,0,1-.37-1.24,1.82,1.82,0,0,1,.58-1.47,1.35,1.35,0,0,1,.93-.35h3.06Q436.41,228.29,436.41,227.63ZM445,212.44c.44,0,1,.4,1.66,1.22a46,46,0,0,1,4.82,6.91,9.89,9.89,0,0,1,1.55,4.32,2.78,2.78,0,0,1-1.2,2.4,3.5,3.5,0,0,1-2.07.67,1.93,1.93,0,0,1-1.76-.89,16.31,16.31,0,0,1-1.16-3.47c-1-3.67-1.88-6.66-2.65-8.95a4,4,0,0,1-.25-1.19C443.91,212.78,444.26,212.44,445,212.44Z"/><path class="cls-1" d="M510.25,213.91h15.68a3.4,3.4,0,0,1,2.46.77,3.37,3.37,0,0,1,.77,2.44v11.62a3.33,3.33,0,0,1-.77,2.43,3.36,3.36,0,0,1-2.46.78H505.34a3.35,3.35,0,0,1-2.46-.78,3.28,3.28,0,0,1-.78-2.43v-8.27q-4,2.33-5.69,2.33c-.85,0-1.27-.37-1.27-1.11q0-.66,1.08-1.53a38.08,38.08,0,0,0,7.84-8.15h-7.34a1.53,1.53,0,0,1-1.08-.44,1.79,1.79,0,0,1-.62-1.38,1.73,1.73,0,0,1,1.7-1.74H506c.24-.5.51-1.16.84-2h-7.24a1.45,1.45,0,0,1-1-.43,1.77,1.77,0,0,1-.58-1.33,1.65,1.65,0,0,1,.68-1.36,1.49,1.49,0,0,1,.91-.31h8.3c.07-.27.21-.87.43-1.8l-.93,0H507c-5.48,0-8.53-.1-9.15-.32a1.21,1.21,0,0,1-.89-1.24c0-.93.64-1.42,1.93-1.47q17.05-.66,26-2a26.56,26.56,0,0,1,2.66-.31,2,2,0,0,1,1.25.35,2.75,2.75,0,0,1,1.05,2.34c0,1.28-.72,2-2.15,2.23s-5.28.35-11.13.4c-.26,0-.52,0-.79,0-.16.69-.29,1.28-.41,1.78H527.9a1.57,1.57,0,0,1,1.13.45,1.64,1.64,0,0,1,.54,1.22,1.68,1.68,0,0,1-.74,1.41,1.56,1.56,0,0,1-.93.35H514.38c-.25.72-.51,1.39-.78,2h16.65a1.75,1.75,0,0,1,1.76,1.74,1.74,1.74,0,0,1-.78,1.49,1.65,1.65,0,0,1-1,.33h-18.6A22,22,0,0,1,510.25,213.91Zm-1.68,5h14.11V218c0-.44-.21-.67-.64-.67H509.23a.59.59,0,0,0-.66.67Zm0,4.6h14.11V222H508.57Zm0,3v1.29a.59.59,0,0,0,.66.67H522c.43,0,.64-.23.64-.67v-1.29Z"/><path class="cls-1" d="M588.43,207.58h-3.95v19a.86.86,0,0,0,1,1h23.92c1.29,0,1.93.62,1.93,1.85s-.64,1.84-1.93,1.84H582.21a7.17,7.17,0,0,1-2.14-.23,3.09,3.09,0,0,1-1.92-1.59,4.33,4.33,0,0,1-.27-1.8V207.58h-2.23a1.56,1.56,0,0,1-1.14-.48,2,2,0,0,1,.12-2.81,1.47,1.47,0,0,1,1-.41h2.23v-3.83a3.83,3.83,0,0,1,.35-2,3.28,3.28,0,0,1,3-1.28c2.16,0,3.25,1,3.25,3v4.06h3.95V198a1.93,1.93,0,0,1,.83-1.62,3.75,3.75,0,0,1,2.34-.72,3.71,3.71,0,0,1,2.65.95,1.87,1.87,0,0,1,.66,1.39v5.86h5.54V198a2,2,0,0,1,.83-1.65,3.89,3.89,0,0,1,2.36-.71,3.6,3.6,0,0,1,2.63,1,1.93,1.93,0,0,1,.66,1.41v5.86h2.63a1.6,1.6,0,0,1,1.16.49,1.89,1.89,0,0,1,.58,1.39,1.77,1.77,0,0,1-.73,1.49,1.65,1.65,0,0,1-1,.33h-2.63v12.27a3.8,3.8,0,0,1-.23,1.55,2.66,2.66,0,0,1-1.59,1.37,5.71,5.71,0,0,1-1.78.2H592.05a4.17,4.17,0,0,1-2.75-.74,3,3,0,0,1-.87-2.38Zm6.48,0v10.84a.86.86,0,0,0,1,1h3.6a.87.87,0,0,0,1-1V207.58Z"/><path class="cls-1" d="M675.31,214.62A64.84,64.84,0,0,0,687.72,218a5.21,5.21,0,0,1,2.53.85,2,2,0,0,1,.41,1.37,4.69,4.69,0,0,1-.58,2.38,2.08,2.08,0,0,1-1.92,1,17.63,17.63,0,0,1-5.8-1.55,2,2,0,0,1,.19.83v7.53a2.06,2.06,0,0,1-.93,1.66,3.88,3.88,0,0,1-2.42.76,3.53,3.53,0,0,1-2.54-.93,2,2,0,0,1-.71-1.49v-7.53a1.88,1.88,0,0,1,1.14-1.8,4.49,4.49,0,0,1,1.92-.46,54.41,54.41,0,0,1-6.51-3.7c-.91.62-1.84,1.2-2.78,1.74a35.68,35.68,0,0,1-4.69,1.94,4.48,4.48,0,0,1,2.36.67,1.32,1.32,0,0,1,.64,1.09v2a7.37,7.37,0,0,1-1.27,4.63,9.26,9.26,0,0,1-3,2.11,18.69,18.69,0,0,1-4,1.31,14.53,14.53,0,0,1-2.73.41c-.86,0-1.3-.35-1.3-1a1.1,1.1,0,0,1,.37-.85,10.76,10.76,0,0,1,1.49-.77,6.3,6.3,0,0,0,3.85-6.14v-1.68a1.13,1.13,0,0,1,.16-.58,5.81,5.81,0,0,0-.56.19c-.78.26-1.77.52-3,.8a25.91,25.91,0,0,1-3.57.62,1.07,1.07,0,0,1-1.21-1.21,1.33,1.33,0,0,1,.32-.93,6.87,6.87,0,0,1,1.84-.91,44.67,44.67,0,0,0,11.48-6.23h-6.35a7,7,0,0,1-2.15-.23,3.26,3.26,0,0,1-1.91-1.7,4.86,4.86,0,0,1-.27-1.9v-9.23a4.86,4.86,0,0,1,.27-1.9,3.26,3.26,0,0,1,1.91-1.7,7.29,7.29,0,0,1,2.15-.23H683.4a7.09,7.09,0,0,1,2.13.23,3.31,3.31,0,0,1,1.92,1.7,4.86,4.86,0,0,1,.27,1.9v9.23a4.86,4.86,0,0,1-.27,1.9,3.31,3.31,0,0,1-1.92,1.7,6.77,6.77,0,0,1-2.13.23h-7.61a2.35,2.35,0,0,0-.19.22ZM669,203.92v-3.25h-5.54a.81.81,0,0,0-.9.93v2.32Zm0,3.18h-6.44v2.69a.81.81,0,0,0,.9.93H669Zm6.08-6.43v3.25h6.31V201.6a.82.82,0,0,0-.91-.93Zm0,10.05h5.4a.82.82,0,0,0,.91-.93V207.1h-6.31Z"/><rect class="cls-1" x="712.68" y="212.37" width="41.11" height="2.2"/><rect class="cls-1" x="274.23" y="212.37" width="41.11" height="2.2"/></svg>
